<svg xmlns="http://www.w3.org/2000/svg" version="1.1" xmlns:xlink="http://www.w3.org/1999/xlink" xmlns:svgjs="http://svgjs.dev/svgjs" width="1565" height="641" preserveAspectRatio="none" viewBox="0 0 1565 641"><g mask="url(&quot;#SvgjsMask1108&quot;)" fill="none"><rect width="1565" height="641" x="0" y="0" fill="rgba(6, 143, 255, 1)"></rect><path d="M0,437.431C84.189,433.421,171.493,422.319,238.834,371.634C304.141,322.48,329.256,240.207,361.706,165.186C393.503,91.673,427.669,18.818,426.079,-61.261C424.358,-147.986,403.374,-235.167,352.367,-305.327C298.93,-378.83,225.452,-448.961,135.392,-461.104C47.492,-472.956,-26.436,-402.523,-107.874,-367.385C-178.19,-337.045,-260.117,-326.725,-310.24,-268.824C-360.353,-210.934,-364.072,-129.604,-378.762,-54.458C-394.244,24.741,-419.947,104.167,-398.354,181.922C-374.912,266.336,-327.661,347.804,-253.918,395.104C-180.198,442.389,-87.482,441.598,0,437.431" fill="#0081eb"></path><path d="M1565 1346.612C1694.72 1340.654 1773.847 1205.8319999999999 1879.258 1129.995 1978.0059999999999 1058.951 2108.685 1022.844 2164.944 914.985 2222.029 805.542 2185.956 675.822 2180.4719999999998 552.508 2174.351 414.871 2214.1059999999998 260.449 2130.952 150.60000000000002 2047.2559999999999 40.03499999999997 1894.377-5.761999999999944 1755.7350000000001-8.581999999999994 1630.365-11.131999999999948 1535.331 95.32399999999996 1416.741 136.075 1305.596 174.267 1164.096 138.34199999999998 1082.374 222.80200000000002 1000.434 307.487 1020.516 443.68600000000004 1005.955 560.621 991.687 675.203 957.356 791.858 998.057 899.914 1039.9560000000001 1011.1510000000001 1138.259 1086.1770000000001 1231.626 1159.741 1333.759 1240.212 1435.1109999999999 1352.578 1565 1346.612" fill="#209bff"></path></g><defs><mask id="SvgjsMask1108"><rect width="1565" height="641" fill="#ffffff"></rect></mask></defs></svg>